<svg width="500" height="500" viewBox="0 0 500 500" fill="none" xmlns="http://www.w3.org/2000/svg">
<rect width="500" height="500" rx="80" fill="#030617"/>
<mask id="mask0_1_53" style="mask-type:luminance" maskUnits="userSpaceOnUse" x="76" y="54" width="348" height="392">
<path d="M76 54H423.953V445.964H76V54Z" fill="white"/>
</mask>
<g mask="url(#mask0_1_53)">
<path d="M117.245 130.412C117.135 130.625 116.922 130.729 116.813 130.943C109.958 139.729 103.854 149.156 98.6042 159.12C98.3906 159.547 98.0677 160.083 97.8542 160.511C96.4583 163.188 95.0677 165.974 93.7813 168.761C93.4635 169.511 93.1406 170.261 92.7135 171.011C91.5313 173.688 90.4635 176.261 89.3906 178.938C89.0677 179.688 88.75 180.438 88.5313 181.188C87.3542 184.401 86.1771 187.615 85.2135 190.828C85.2135 191.042 85.1042 191.255 85 191.474C83.9271 195.005 82.8542 198.542 82 202.182C81.7865 202.932 81.6771 203.682 81.4635 204.432C80.8177 207.219 80.1771 210.005 79.6406 212.896C79.4271 214.073 79.2135 215.255 79 216.432C78.5729 218.896 78.1406 221.359 77.8229 223.823C77.6042 225.109 77.5 226.396 77.2865 227.682C76.9635 230.25 76.75 232.823 76.5365 235.396C76.5365 236.573 76.3229 237.75 76.3229 238.927C76.1042 242.677 76 246.427 76 250.177C76 311.24 103.745 367.698 152.167 405.083C186.661 431.755 228.01 445.792 271.615 445.792C315.214 445.792 372.953 425.438 409.917 388.479L423.734 374.766L397.276 348.307L350.672 301.703L336.964 315.526C319.5 332.984 296.255 342.521 271.615 342.521C232.297 342.521 197.266 317.563 184.411 280.386L181.625 272.458H141.349L145.953 287.672C162.453 342.844 214.193 381.302 271.615 381.302C329.031 381.302 276.115 381.302 278.042 381.089C279.969 381.089 281.896 380.87 283.609 380.656C285.005 380.656 286.396 380.443 287.682 380.229C288.542 380.229 289.505 380.016 289.823 379.906C291.646 379.693 293.469 379.37 294.969 379.052C296.682 378.839 298.286 378.406 299.786 378.089C300.536 377.979 301.286 377.766 302.036 377.552C303.214 377.339 304.396 377.016 305.573 376.693C306.109 376.589 306.646 376.479 307.177 376.266L308.573 375.839C309.536 375.516 310.5 375.302 310.927 375.089C312.214 374.656 313.5 374.339 314.464 373.912C315.214 373.693 315.964 373.375 316.5 373.162C317.786 372.729 318.964 372.302 319.823 371.875C320.786 371.552 321.641 371.125 322.714 370.693C322.714 370.693 324.75 369.839 324.854 369.729C326.036 369.193 327.214 368.662 328.5 368.016C330.531 366.948 332.995 365.766 335.354 364.479C336.641 363.839 337.818 363.089 339.104 362.339C341.354 361.052 343.495 359.552 345.531 358.271C347.031 357.302 348.422 356.339 349.604 355.375L367.922 373.693C366.313 374.875 364.813 376.052 363.208 377.229C362.245 377.875 361.385 378.516 360.422 379.156C359.458 379.802 358.599 380.443 357.635 381.089C357.422 381.302 357.099 381.406 356.885 381.516C331.714 397.797 302.146 406.688 271.615 406.688C258.974 406.156 247.297 404.761 236.37 402.724C214.516 397.693 193.948 388.052 175.844 374.016C137.063 344.021 114.781 298.813 114.781 249.854C114.781 200.901 114.885 243.641 115.099 240.537C116.495 217.609 122.708 196.078 132.885 176.797C132.99 176.583 133.099 176.365 133.203 176.151C134.172 174.333 135.24 172.615 136.203 170.797C136.417 170.37 136.635 170.047 136.849 169.62C137.813 168.011 138.885 166.406 139.849 164.797C140.167 164.261 140.49 163.833 140.813 163.297C141.776 161.797 142.849 160.406 143.813 158.906C144.24 158.37 144.563 157.724 144.99 157.193C145.953 155.797 147.026 154.511 148.094 153.12C148.63 152.479 149.063 151.833 149.594 151.297C150.557 150.016 151.63 148.833 152.703 147.547C153.24 146.906 153.776 146.266 154.417 145.62C155.49 144.443 156.453 143.37 157.521 142.193C158.167 141.552 158.807 140.802 159.453 140.156C160.521 139.089 161.594 138.016 162.667 136.943C163.417 136.302 164.057 135.552 164.807 134.906C165.88 133.943 166.948 132.979 168.021 132.016C168.771 131.375 169.521 130.625 170.38 129.979C171.448 129.016 172.521 128.162 173.594 127.302C174.448 126.662 175.307 126.016 176.161 125.266C177.234 124.412 178.307 123.552 179.484 122.802C180.344 122.162 181.307 121.516 182.161 120.875C183.234 120.125 184.411 119.375 185.484 118.625C186.448 117.984 187.411 117.339 188.375 116.802C189.234 116.271 190.198 115.734 191.052 115.198C191.589 114.875 192.125 114.552 192.661 114.234C193.411 113.802 194.052 113.375 194.802 112.948C195.552 112.521 196.302 112.089 197.052 111.771C197.479 111.557 198.016 111.234 198.448 111.021C199.411 110.484 200.375 110.057 201.339 109.521C201.339 109.521 201.552 109.521 201.661 109.412C202.729 108.875 203.802 108.339 204.875 107.807C206.052 107.271 207.125 106.734 208.302 106.307C209.156 105.875 210.125 105.557 210.979 105.125C211.516 104.912 212.156 104.698 212.693 104.375C213.552 104.057 214.406 103.734 215.266 103.307C216.016 102.984 216.766 102.771 217.516 102.448C218.052 102.234 218.479 102.021 219.016 101.912C220.083 101.484 221.266 101.162 222.333 100.734C223.516 100.307 224.583 99.9845 225.766 99.6615C227.047 99.2345 228.333 98.9115 229.62 98.5938C230.583 98.3803 231.443 98.0574 232.406 97.8438C232.943 97.7345 233.474 97.6303 234.01 97.4115C235.083 97.198 236.047 96.8803 237.12 96.6667C237.87 96.448 238.62 96.3438 239.474 96.1303C240.01 96.1303 240.547 95.9168 240.974 95.8074C242.26 95.5938 243.547 95.3803 244.833 95.1667C245.901 94.948 246.974 94.7345 248.151 94.6303C249.651 94.4167 251.26 94.198 252.76 94.0938C253.51 94.0938 254.365 93.8803 255.115 93.7709C255.76 93.7709 256.297 93.6668 256.938 93.5574C258.328 93.448 259.724 93.3438 261.01 93.2345C261.438 93.2345 261.865 93.2345 262.401 93.2345C263.042 93.2345 263.688 93.2345 264.328 93.1303C266.688 93.0209 269.151 92.9167 271.615 92.9167C313.5 92.9167 352.818 109.198 382.49 138.87L390.844 147.229L410.667 127.412L418.271 119.802L409.917 111.448C372.953 74.4897 323.891 54.1355 271.615 54.1355C219.333 54.1355 265.615 54.1355 262.724 54.349C261.974 54.349 261.115 54.349 260.365 54.4584C257.688 54.5626 255.115 54.7761 252.438 55.099C252.115 55.099 251.797 55.099 251.474 55.099C248.688 55.422 245.797 55.7397 243.01 56.172C242.151 56.2761 241.297 56.3855 240.438 56.599C238.188 56.922 236.047 57.349 233.797 57.7761C233.156 57.8855 232.406 57.9897 231.76 58.2032C229.193 58.7397 226.62 59.3855 224.047 60.0261C222.979 60.2397 222.016 60.5626 220.943 60.8855C219.12 61.3126 217.406 61.849 215.589 62.3855C214.62 62.7032 213.656 62.9167 212.589 63.2397C210.229 63.9897 207.979 64.7397 205.625 65.599C204.443 66.0261 203.266 66.4532 202.089 66.8855C200.698 67.4167 199.302 67.9532 198.016 68.4897C196.839 69.0261 195.552 69.4532 194.375 69.9897C192.234 70.849 190.198 71.8126 188.161 72.7761C186.875 73.4167 185.589 74.0626 184.307 74.7032C183.234 75.2397 182.161 75.7761 181.089 76.4167C179.807 77.0574 178.411 77.8074 177.125 78.5574C175.198 79.6303 173.38 80.7032 171.557 81.7761C153.88 92.3803 137.917 105.662 124.422 121.089C124.313 121.198 124.208 121.412 124.099 121.516C121.745 124.198 119.495 126.979 117.349 129.766L117.245 130.412Z" fill="#40CF8F"/>
</g>
<path d="M271.828 181.188C259.401 181.188 247.833 184.51 237.656 190.188C237.656 190.188 237.437 190.292 237.333 190.401C235.083 191.688 233.047 193.078 230.906 194.578C230.37 194.901 229.943 195.328 229.406 195.651C228.443 196.401 227.583 197.151 226.62 197.901C226.193 198.219 225.766 198.651 225.333 199.078C223.833 200.365 222.443 201.755 221.052 203.255C220.516 203.896 219.979 204.432 219.443 205.078C218.802 205.828 218.156 206.578 217.516 207.432C216.766 208.396 216.016 209.469 215.266 210.542C214.62 211.505 213.979 212.359 213.339 213.323C212.693 214.292 212.156 215.255 211.516 216.323C211.089 217.073 210.766 217.719 210.339 218.469C209.479 220.073 208.729 221.682 207.979 223.286C207.766 223.719 207.656 224.146 207.443 224.573C206.906 225.969 206.375 227.469 205.839 228.964C205.625 229.609 205.411 230.146 205.302 230.786C204.766 232.609 204.229 234.536 203.802 236.464C203.802 236.677 203.802 236.896 203.802 237C203.479 238.823 203.161 240.641 202.943 242.573C202.943 243.104 202.839 243.641 202.729 244.177C202.516 246.214 202.411 248.354 202.411 250.5C202.411 288.745 233.37 319.703 271.615 319.703C309.859 319.703 276.432 319.594 278.792 319.38C279.328 319.38 279.865 319.167 280.396 319.167C282.219 318.953 284.042 318.74 285.755 318.313C286.292 318.313 286.719 318.094 287.146 317.99C288.969 317.563 290.792 317.13 292.505 316.594C292.823 316.49 293.146 316.38 293.469 316.276C295.396 315.63 297.219 314.99 299.036 314.13C299.25 314.13 299.359 313.917 299.573 313.917C301.5 313.063 303.432 312.099 305.25 311.13C305.25 311.13 305.359 311.13 305.464 311.13C311.359 307.813 316.823 303.526 321.427 298.703C333.318 286.281 340.708 269.458 340.708 250.927C340.708 212.682 309.75 181.724 271.505 181.724L271.828 181.188Z" fill="#40CF8F"/>
</svg>
