<svg width="1030" height="394" viewBox="0 0 1030 394" fill="none" xmlns="http://www.w3.org/2000/svg">
<mask id="mask0_1_46" style="mask-type:luminance" maskUnits="userSpaceOnUse" x="1" y="1" width="349" height="393">
<path d="M1.11719 1.03656H349.07V393H1.11719V1.03656Z" fill="white"/>
</mask>
<g mask="url(#mask0_1_46)">
<path d="M42.362 77.448C42.2526 77.6616 42.0391 77.7657 41.9297 77.9793C35.0755 86.7658 28.9714 96.1928 23.7214 106.156C23.5078 106.583 23.1849 107.12 22.9714 107.547C21.5755 110.224 20.1849 113.011 18.8984 115.797C18.5807 116.547 18.2578 117.297 17.8307 118.047C16.6484 120.724 15.5807 123.297 14.5078 125.974C14.1849 126.724 13.8672 127.474 13.6484 128.224C12.4714 131.438 11.2943 134.651 10.3307 137.865C10.3307 138.078 10.2214 138.292 10.1172 138.511C9.04427 142.042 7.97135 145.578 7.11719 149.219C6.90365 149.969 6.79427 150.719 6.58073 151.469C5.9349 154.255 5.29427 157.042 4.75781 159.932C4.54427 161.11 4.33073 162.292 4.11719 163.469C3.6901 165.932 3.25781 168.396 2.9401 170.86C2.72135 172.146 2.61719 173.432 2.40365 174.719C2.08073 177.287 1.86719 179.86 1.65365 182.432C1.65365 183.61 1.4401 184.787 1.4401 185.964C1.22135 189.714 1.11719 193.464 1.11719 197.214C1.11719 258.276 28.862 314.735 77.2839 352.12C111.779 378.792 153.128 392.828 196.732 392.828C240.331 392.828 298.07 372.474 335.034 335.516L348.852 321.802L322.393 295.344L275.789 248.74L262.081 262.563C244.617 280.021 221.372 289.557 196.732 289.557C157.414 289.557 122.383 264.599 109.529 227.422L106.742 219.495H66.4661L71.0703 234.708C87.5703 289.88 139.31 328.339 196.732 328.339C254.148 328.339 201.232 328.339 203.159 328.125C205.086 328.125 207.013 327.906 208.727 327.693C210.122 327.693 211.513 327.479 212.799 327.266C213.659 327.266 214.622 327.052 214.94 326.943C216.763 326.729 218.586 326.406 220.086 326.089C221.799 325.875 223.404 325.443 224.904 325.125C225.654 325.016 226.404 324.802 227.154 324.589C228.331 324.375 229.513 324.052 230.69 323.729C231.227 323.625 231.763 323.516 232.294 323.302L233.69 322.875C234.654 322.552 235.617 322.339 236.044 322.125C237.331 321.693 238.617 321.375 239.581 320.948C240.331 320.729 241.081 320.412 241.617 320.198C242.904 319.766 244.081 319.339 244.94 318.912C245.904 318.589 246.758 318.162 247.831 317.729C247.831 317.729 249.867 316.875 249.971 316.766C251.154 316.229 252.331 315.698 253.617 315.052C255.648 313.985 258.112 312.802 260.471 311.516C261.758 310.875 262.935 310.125 264.221 309.375C266.471 308.089 268.612 306.589 270.648 305.307C272.148 304.339 273.539 303.375 274.721 302.412L293.039 320.729C291.43 321.912 289.93 323.089 288.326 324.266C287.362 324.912 286.503 325.552 285.539 326.193C284.576 326.839 283.716 327.479 282.753 328.125C282.539 328.339 282.216 328.443 282.003 328.552C256.831 344.833 227.263 353.724 196.732 353.724C184.091 353.193 172.414 351.797 161.487 349.761C139.633 344.729 119.065 335.089 100.961 321.052C62.1797 291.057 39.8984 245.849 39.8984 196.891C39.8984 147.938 40.0026 190.677 40.2161 187.573C41.612 164.646 47.8255 143.115 58.0026 123.833C58.1068 123.62 58.2161 123.401 58.3203 123.188C59.2891 121.37 60.3568 119.651 61.3203 117.833C61.5339 117.406 61.7526 117.083 61.9661 116.656C62.9297 115.047 64.0026 113.443 64.9661 111.833C65.2839 111.297 65.6068 110.87 65.9297 110.333C66.8932 108.833 67.9661 107.443 68.9297 105.943C69.3568 105.406 69.6797 104.761 70.1068 104.229C71.0703 102.833 72.1432 101.547 73.2109 100.156C73.7474 99.5157 74.1797 98.8699 74.7109 98.3335C75.6745 97.0522 76.7474 95.8699 77.8203 94.5835C78.3568 93.9428 78.8932 93.3022 79.5339 92.6564C80.6068 91.4793 81.5703 90.4064 82.638 89.2293C83.2839 88.5887 83.9245 87.8387 84.5703 87.1928C85.638 86.1251 86.7109 85.0522 87.7839 83.9793C88.5339 83.3387 89.1745 82.5887 89.9245 81.9428C90.9974 80.9793 92.0651 80.0158 93.138 79.0522C93.888 78.4116 94.638 77.6616 95.4974 77.0157C96.5651 76.0522 97.638 75.198 98.7109 74.3387C99.5651 73.698 100.424 73.0522 101.279 72.3022C102.352 71.448 103.424 70.5887 104.602 69.8387C105.461 69.198 106.424 68.5522 107.279 67.9116C108.352 67.1616 109.529 66.4116 110.602 65.6616C111.565 65.021 112.529 64.3751 113.492 63.8387C114.352 63.3074 115.315 62.771 116.169 62.2345C116.706 61.9116 117.242 61.5887 117.779 61.271C118.529 60.8387 119.169 60.4116 119.919 59.9845C120.669 59.5574 121.419 59.1251 122.169 58.8074C122.596 58.5939 123.133 58.271 123.565 58.0574C124.529 57.521 125.492 57.0939 126.456 56.5574C126.456 56.5574 126.669 56.5574 126.779 56.448C127.846 55.9116 128.919 55.3751 129.992 54.8439C131.169 54.3074 132.242 53.771 133.419 53.3439C134.273 52.9116 135.242 52.5939 136.096 52.1616C136.633 51.948 137.273 51.7345 137.81 51.4116C138.669 51.0939 139.523 50.771 140.383 50.3439C141.133 50.021 141.883 49.8074 142.633 49.4845C143.169 49.271 143.596 49.0574 144.133 48.948C145.201 48.521 146.383 48.198 147.451 47.771C148.633 47.3439 149.701 47.021 150.883 46.698C152.164 46.271 153.451 45.948 154.737 45.6303C155.701 45.4168 156.56 45.0939 157.523 44.8803C158.06 44.771 158.591 44.6668 159.128 44.448C160.201 44.2345 161.164 43.9168 162.237 43.7032C162.987 43.4845 163.737 43.3803 164.591 43.1668C165.128 43.1668 165.664 42.9532 166.091 42.8439C167.378 42.6303 168.664 42.4168 169.951 42.2032C171.018 41.9845 172.091 41.771 173.268 41.6668C174.768 41.4532 176.378 41.2345 177.878 41.1303C178.628 41.1303 179.482 40.9168 180.232 40.8074C180.878 40.8074 181.414 40.7032 182.055 40.5939C183.445 40.4845 184.841 40.3803 186.128 40.271C186.555 40.271 186.982 40.271 187.518 40.271C188.159 40.271 188.805 40.271 189.445 40.1668C191.805 40.0574 194.268 39.9532 196.732 39.9532C238.617 39.9532 277.935 56.2345 307.607 85.9064L315.961 94.2657L335.784 74.448L343.388 66.8387L335.034 58.4845C298.07 21.5262 249.008 1.172 196.732 1.172C144.451 1.172 190.732 1.172 187.841 1.38554C187.091 1.38554 186.232 1.38554 185.482 1.49491C182.805 1.59908 180.232 1.81262 177.555 2.13554C177.232 2.13554 176.914 2.13554 176.591 2.13554C173.805 2.45846 170.914 2.77616 168.128 3.20846C167.268 3.31262 166.414 3.422 165.555 3.63554C163.305 3.95846 161.164 4.38554 158.914 4.81262C158.273 4.922 157.523 5.02616 156.878 5.23971C154.31 5.77616 151.737 6.422 149.164 7.06262C148.096 7.27616 147.133 7.59908 146.06 7.922C144.237 8.34908 142.523 8.88554 140.706 9.422C139.737 9.73971 138.773 9.95325 137.706 10.2762C135.346 11.0262 133.096 11.7762 130.742 12.6355C129.56 13.0626 128.383 13.4897 127.206 13.922C125.815 14.4532 124.419 14.9897 123.133 15.5262C121.956 16.0626 120.669 16.4897 119.492 17.0262C117.352 17.8855 115.315 18.8491 113.279 19.8126C111.992 20.4532 110.706 21.0991 109.424 21.7397C108.352 22.2762 107.279 22.8126 106.206 23.4532C104.924 24.0939 103.529 24.8439 102.242 25.5939C100.315 26.6668 98.4974 27.7397 96.6745 28.8126C78.9974 39.4168 63.0339 52.698 49.5391 68.1251C49.4297 68.2345 49.3255 68.448 49.2161 68.5522C46.862 71.2345 44.612 74.0158 42.4661 76.8022L42.362 77.448Z" fill="#40CF8F"/>
</g>
<path d="M196.945 128.224C184.518 128.224 172.951 131.547 162.773 137.224C162.773 137.224 162.555 137.328 162.451 137.438C160.201 138.724 158.164 140.115 156.023 141.615C155.487 141.938 155.06 142.365 154.523 142.688C153.56 143.438 152.701 144.188 151.737 144.938C151.31 145.255 150.883 145.688 150.451 146.115C148.951 147.401 147.56 148.792 146.169 150.292C145.633 150.932 145.096 151.469 144.56 152.115C143.919 152.865 143.273 153.615 142.633 154.469C141.883 155.432 141.133 156.505 140.383 157.578C139.737 158.542 139.096 159.396 138.456 160.359C137.81 161.328 137.273 162.292 136.633 163.359C136.206 164.109 135.883 164.755 135.456 165.505C134.596 167.109 133.846 168.719 133.096 170.323C132.883 170.755 132.773 171.182 132.56 171.609C132.023 173.005 131.492 174.505 130.956 176C130.742 176.646 130.529 177.182 130.419 177.823C129.883 179.646 129.346 181.573 128.919 183.5C128.919 183.714 128.919 183.932 128.919 184.037C128.596 185.859 128.279 187.677 128.06 189.609C128.06 190.141 127.956 190.677 127.846 191.214C127.633 193.25 127.529 195.391 127.529 197.537C127.529 235.781 158.487 266.74 196.732 266.74C234.977 266.74 201.549 266.63 203.909 266.417C204.445 266.417 204.982 266.203 205.513 266.203C207.336 265.99 209.159 265.776 210.872 265.349C211.409 265.349 211.836 265.13 212.263 265.026C214.086 264.599 215.909 264.167 217.622 263.63C217.94 263.526 218.263 263.417 218.586 263.313C220.513 262.667 222.336 262.026 224.154 261.167C224.367 261.167 224.477 260.953 224.69 260.953C226.617 260.099 228.549 259.136 230.367 258.167C230.367 258.167 230.477 258.167 230.581 258.167C236.477 254.849 241.94 250.563 246.544 245.74C258.435 233.318 265.826 216.495 265.826 197.964C265.826 159.719 234.867 128.761 196.622 128.761L196.945 128.224Z" fill="#40CF8F"/>
<mask id="mask1_1_46" style="mask-type:luminance" maskUnits="userSpaceOnUse" x="347" y="71" width="687" height="252">
<path d="M1033.07 71.6667H347.737V322.333H1033.07V71.6667Z" fill="white"/>
</mask>
<g mask="url(#mask1_1_46)">
<path d="M426.734 237.625C433.651 237.625 440.12 236.182 446.151 233.292C452.193 230.391 457.536 226.24 462.193 220.833L480.088 238.562C473.807 245.979 465.797 251.891 456.047 256.292C446.307 260.698 436.286 262.896 425.984 262.896C416.052 262.896 406.781 261.135 398.172 257.625C389.557 254.099 382.109 249.323 375.818 243.292C369.536 237.25 364.609 230.083 361.026 221.792C357.443 213.49 355.651 204.557 355.651 195C355.651 185.448 357.469 176.49 361.109 168.125C364.76 159.766 369.724 152.573 376.005 146.542C382.297 140.516 389.745 135.745 398.359 132.229C406.969 128.703 416.177 126.937 425.984 126.937C436.536 126.937 446.781 129.167 456.713 133.625C466.64 138.083 474.693 144.083 480.859 151.625L462.38 169.917C457.724 164.141 452.255 159.719 445.963 156.646C439.682 153.562 433.026 152.021 425.984 152.021C420.068 152.021 414.495 153.12 409.276 155.312C404.068 157.51 399.573 160.521 395.797 164.354C392.031 168.187 389.078 172.719 386.943 177.937C384.802 183.161 383.734 188.849 383.734 195C383.734 201.042 384.828 206.677 387.026 211.896C389.234 217.104 392.255 221.599 396.088 225.375C399.922 229.141 404.448 232.125 409.672 234.333C414.89 236.531 420.578 237.625 426.734 237.625Z" fill="white"/>
<path d="M518.526 123.354V261H492.693V129L518.526 123.354Z" fill="white"/>
<path d="M568.094 262.687C557.537 262.687 548.927 259.896 542.261 254.312C535.594 248.719 532.261 241.453 532.261 232.521C532.261 223.229 535.844 215.948 543.011 210.667C550.177 205.375 560.042 202.729 572.615 202.729C576.641 202.729 580.662 203.052 584.677 203.687C588.703 204.312 592.667 205.25 596.573 206.5V199.521C596.573 193.87 594.807 189.599 591.281 186.708C587.766 183.823 582.615 182.375 575.823 182.375C571.682 182.375 567.188 183.036 562.344 184.354C557.511 185.677 552.011 187.719 545.844 190.479L536.427 171.437C544.094 167.911 551.537 165.271 558.761 163.521C565.995 161.76 573.125 160.875 580.156 160.875C593.365 160.875 603.641 164.052 610.99 170.396C618.349 176.745 622.031 185.703 622.031 197.271V261H596.573V254.208C592.417 257.099 588.042 259.24 583.448 260.625C578.865 262 573.745 262.687 568.094 262.687ZM556.969 231.958C556.969 235.74 558.599 238.724 561.865 240.917C565.141 243.115 569.479 244.208 574.886 244.208C579.162 244.208 583.094 243.682 586.677 242.625C590.261 241.557 593.557 240.016 596.573 238V223.292C593.432 222.031 590.136 221.12 586.677 220.562C583.219 219.995 579.599 219.708 575.823 219.708C569.917 219.708 565.302 220.812 561.969 223.021C558.636 225.219 556.969 228.198 556.969 231.958Z" fill="white"/>
<path d="M652.723 151.062C648.707 151.062 645.249 149.62 642.348 146.729C639.457 143.844 638.015 140.385 638.015 136.354C638.015 132.344 639.457 128.891 642.348 126C645.249 123.099 648.707 121.646 652.723 121.646C656.749 121.646 660.207 123.099 663.098 126C665.983 128.891 667.431 132.344 667.431 136.354C667.431 140.385 665.983 143.844 663.098 146.729C660.207 149.62 656.749 151.062 652.723 151.062ZM665.744 162.75V261H639.91V162.75H665.744Z" fill="white"/>
<path d="M684.207 261V162.75H710.041V173.5C713.176 169.24 716.978 166.01 721.436 163.812C725.905 161.604 730.843 160.5 736.249 160.5C738.759 160.625 740.864 160.849 742.561 161.167C744.254 161.474 745.733 162 746.999 162.75V185.396C745.108 184.51 743.03 183.849 740.77 183.417C738.504 182.974 736.176 182.75 733.791 182.75C728.759 182.75 724.145 184.01 719.936 186.521C715.728 189.036 712.426 192.682 710.041 197.458V261H684.207Z" fill="white"/>
<path d="M774.113 233.292V184.437H753.947V162.75H774.113V137.687L799.947 131.833V162.75H827.863V184.437H799.947V228C799.947 232.656 800.952 235.927 802.967 237.812C804.978 239.687 808.499 240.625 813.53 240.625C815.915 240.625 818.181 240.474 820.322 240.167C822.457 239.849 824.785 239.25 827.301 238.375V259.5C824.535 260.375 821.202 261.088 817.301 261.646C813.395 262.213 810.061 262.5 807.301 262.5C796.369 262.5 788.103 260.021 782.509 255.062C776.91 250.094 774.113 242.833 774.113 233.292Z" fill="white"/>
<path d="M864.049 162.75V219.896C864.049 226.177 865.903 231.203 869.611 234.979C873.32 238.745 878.247 240.625 884.403 240.625C888.804 240.625 892.736 239.781 896.195 238.083C899.653 236.391 902.512 233.974 904.778 230.833V162.75H930.611V261H904.778V253.083C900.997 256.224 896.783 258.646 892.132 260.354C887.476 262.047 882.45 262.896 877.049 262.896C865.726 262.896 856.424 259.224 849.132 251.875C841.851 244.516 838.215 235.115 838.215 223.667V162.75H864.049Z" fill="white"/>
<path d="M940.757 249.312L953.57 232.146C959.346 235.927 964.809 238.724 969.966 240.542C975.132 242.365 980.288 243.271 985.445 243.271C991.221 243.271 995.841 242.333 999.299 240.458C1002.76 238.573 1004.49 236.052 1004.49 232.896C1004.49 230.385 1003.51 228.375 1001.55 226.875C999.601 225.365 996.492 224.292 992.216 223.667L973.361 220.833C963.679 219.333 956.288 216.198 951.195 211.417C946.111 206.641 943.57 200.286 943.57 192.354C943.57 182.937 947.278 175.406 954.695 169.75C962.111 164.083 972.038 161.25 984.486 161.25C991.653 161.25 998.632 162.292 1005.42 164.375C1012.22 166.448 1018.68 169.49 1024.84 173.5L1012.4 190.104C1007 186.969 1001.85 184.615 996.945 183.042C992.038 181.458 987.075 180.667 982.049 180.667C977.393 180.667 973.653 181.552 970.82 183.312C967.986 185.078 966.57 187.406 966.57 190.292C966.57 192.932 967.601 194.974 969.674 196.417C971.757 197.865 975.184 198.896 979.966 199.521L998.82 202.354C1008.37 203.745 1015.76 206.891 1020.97 211.792C1026.18 216.698 1028.8 222.917 1028.8 230.458C1028.8 235.115 1027.7 239.417 1025.51 243.375C1023.31 247.333 1020.32 250.76 1016.55 253.646C1012.77 256.536 1008.24 258.802 1002.97 260.437C997.684 262.073 991.971 262.896 985.82 262.896C976.887 262.896 968.528 261.734 960.736 259.417C952.945 257.083 946.283 253.719 940.757 249.312Z" fill="white"/>
</g>
</svg>
